<svg id="Layer_1" data-name="Layer 1" xmlns="http://www.w3.org/2000/svg" viewBox="0 0 1151.52 1151.52"><defs><style>.cls-1{fill:#231f20;}.cls-2,.cls-8{fill:#fff;}.cls-3{fill:#ed1c24;}.cls-4{fill:#00a651;}.cls-5{fill:#2e3192;}.cls-6{fill:#fff200;}.cls-7{fill:#f15a29;}.cls-8{font-size:60px;font-family:Phosphate-Inline, Phosphate;}</style></defs><title>Mutex Logo1</title><rect class="cls-1" width="1151.52" height="1151.52"/><rect class="cls-2" x="495.39" y="173.17" width="20.55" height="277.82" transform="translate(76.61 48.4) rotate(21.87)"/><rect class="cls-2" x="591.44" y="174.96" width="20.55" height="277.82" transform="translate(-145.13 425.19) rotate(-18.82)"/><rect class="cls-2" x="697.97" y="176.26" width="20.55" height="277.82" transform="translate(92.34 -26.84) rotate(21.87)"/><rect class="cls-2" x="794.59" y="188.03" width="20.55" height="277.82" transform="translate(-138.49 491.42) rotate(-18.82)"/><rect class="cls-2" x="698.44" y="122.9" width="4.67" height="390.15" transform="translate(-98.95 794.01) rotate(-44.29)"/><rect class="cls-1" x="316.84" y="510.4" width="515.56" height="51.18"/><circle class="cls-3" cx="370.16" cy="674.51" r="36.42"/><circle class="cls-4" cx="680.81" cy="400.4" r="36.52"/><circle class="cls-5" cx="575.55" cy="674.51" r="45.12"/><circle class="cls-6" cx="480.2" cy="400.4" r="30.51"/><circle class="cls-7" cx="774.23" cy="674.51" r="29.71"/><text class="cls-8" transform="matrix(0.99, 0, 0, 1, 387.16, 555.28)">Mutex Design</text></svg>